<svg xmlns="http://www.w3.org/2000/svg" viewBox="0 0 760 440" role="img" aria-label="Neural vision pipeline">
  <rect width="760" height="440" rx="28" fill="#03101c"/>
  <path d="M0 92h760M0 184h760M0 276h760M0 368h760" stroke="#82dbff" opacity=".10"/>
  <g fill="none" stroke="#20dcff" stroke-width="2" opacity=".65">
    <path d="M125 110 C260 50 320 180 450 120 S610 110 650 80"/>
    <path d="M120 210 C260 155 360 240 470 205 S610 180 660 245"/>
    <path d="M118 320 C250 260 340 350 460 305 S610 325 660 295"/>
  </g>
  <g>
    <rect x="70" y="94" width="142" height="108" rx="20" fill="#06131f" stroke="#20dcff" stroke-width="4"/>
    <rect x="105" y="125" width="66" height="46" rx="10" fill="none" stroke="#ff9f1c" stroke-width="4"/>
    <text x="86" y="232" fill="#8eabc0" font-family="Consolas, monospace" font-size="18">camera frame</text>
  </g>
  <g fill="#3cff8f">
    <circle cx="315" cy="95" r="12"/><circle cx="315" cy="155" r="12"/><circle cx="315" cy="215" r="12"/><circle cx="315" cy="275" r="12"/><circle cx="315" cy="335" r="12"/>
    <circle cx="425" cy="125" r="12"/><circle cx="425" cy="205" r="12"/><circle cx="425" cy="285" r="12"/>
    <circle cx="535" cy="165" r="12"/><circle cx="535" cy="250" r="12"/>
  </g>
  <g stroke="#82dbff" opacity=".5">
    <path d="M315 95L425 125M315 155L425 125M315 215L425 205M315 275L425 285M315 335L425 285M425 125L535 165M425 205L535 165M425 285L535 250"/>
  </g>
  <rect x="595" y="128" width="96" height="72" rx="10" fill="none" stroke="#ff9f1c" stroke-width="4"/>
  <rect x="610" y="240" width="70" height="62" rx="10" fill="none" stroke="#3cff8f" stroke-width="4"/>
  <text x="34" y="50" fill="#ff9f1c" font-family="Consolas, monospace" font-size="22" font-weight="700">VISION AI PIPELINE</text>
  <text x="34" y="395" fill="#8eabc0" font-family="Consolas, monospace" font-size="18">YOLOv8 → TensorRT FP16 → detections → ROS 2 topics</text>
</svg>
